<?xml version="1.0" encoding="UTF-8" standalone="no"?>
<svg width="177px" height="52px" viewBox="0 0 177 52" version="1.1" xmlns="http://www.w3.org/2000/svg" xmlns:xlink="http://www.w3.org/1999/xlink">
    <!-- Generator: Sketch 40.3 (33839) - http://www.bohemiancoding.com/sketch -->
    <title>bcf_logo</title>
    <desc>Created with Sketch.</desc>
    <defs></defs>
    <g id="Desktop" stroke="none" stroke-width="1" fill="none" fill-rule="evenodd">
        <g id="Event-–-Run-of-Hope-v1-Copy" transform="translate(-27.000000, -56.000000)">
            <g id="Top-menu">
                <g id="bcf_logo" transform="translate(27.000000, 56.000000)">
                    <g id="Lager_1">
                        <rect id="Rectangle-path" fill="#FFFFFF" x="4.17052685" y="5.38860122" width="35.9672953" height="43.5578598"></rect>
                        <g id="Group" transform="translate(5.318121, 5.893783)" fill="#FFD703">
                            <path d="M15.6464732,9.3177896 C15.6464732,9.3177896 15.6744633,9.17746144 15.8983842,9.26165834 C19.061267,10.2439554 21.6643475,10.7491368 22.8959125,10.9175306 C25.8068843,11.3385151 27.0944295,11.647237 30.9010849,11.9278933 C30.9010849,11.9278933 30.8171145,11.8717621 30.8730948,12.2085496 C30.929075,12.5453372 30.929075,12.7698623 31.0410354,13.5837656 C31.180986,14.7625221 31.4608871,15.9412786 31.5168674,16.2219349 C31.6288278,16.8113132 31.3489267,16.8393788 31.2929464,17.2884289 C31.2929464,17.2884289 31.5168674,17.7655446 31.5448575,17.9058728 C31.5728476,18.0742666 31.7407883,18.4671854 31.0690255,18.2426604 C30.4812332,18.0462009 28.9697671,17.6813477 28.7458462,17.5971508 C28.7458462,17.5971508 28.7738363,17.5690852 28.7458462,17.1761664 C28.6898659,16.7551819 28.717856,16.5025912 28.4939351,16.2219349 C28.3539846,16.0535411 28.1020736,15.7448192 27.9061428,15.5483598 C27.8221724,15.4360972 26.4506569,14.3415376 25.1351216,14.0889469 C24.6033094,13.9766844 23.8475764,14.2012095 22.8119422,14.6783252 C22.8119422,14.6783252 22.5040509,15.2396378 22.0562091,15.0431784 C20.6846936,14.4538001 15.9263744,11.7314339 15.2546116,11.2543182 C15.2546116,11.2543182 15.0306907,11.2262525 15.1706413,10.9175306 C15.3105919,10.6649399 15.590493,9.57038028 15.6464732,9.3177896" id="Shape"></path>
                            <path d="M0.531812149,28.093697 C0.531812149,28.093697 0.419851697,28.0656313 0.391861583,27.9253032 C0.391861583,27.8691719 0.36387147,27.7288438 0.36387147,27.6446469 C0.335881357,27.2236624 0.307891244,26.5781529 0.251911018,25.7923152 C0.223920905,25.4555276 0.167940679,25.0906744 0.139950566,24.7258212 C0.0839703393,24.0241804 0.0839703393,23.4067365 0.0839703393,22.761227 C0.0559802262,21.7508643 0.0839703393,20.6843703 0.111960452,20.2914515 C0.111960452,20.2072546 0.0839703393,20.403714 0.111960452,20.2914515 C0.139950566,20.1791889 0.335881357,19.9546639 0.419851697,19.8143357 C0.559802262,19.5056138 0.783723167,19.1968918 1.00764407,18.8320386 C1.67940679,17.7094134 2.46312995,16.3622631 2.7710212,15.913213 C2.91097176,15.6886879 3.10690255,15.5202941 3.27484323,15.3238347 C3.69469493,14.8186533 4.11454663,14.3976689 4.31047742,14.2854063 C4.56238844,14.1170126 4.56238844,14.0608813 4.89826979,14.313472 C4.98224013,14.3696032 5.06621047,14.3976689 5.15018081,14.4538001 C5.29013138,14.537997 5.48606217,14.6502596 5.65400285,14.7344564 C5.84993364,14.846719 5.9898842,14.9589815 6.07385454,14.9870471 C6.43772601,15.1554409 6.29777545,15.1554409 6.12983477,15.5764254 C5.93390398,16.0816068 5.68199296,16.5587225 5.43008194,17.1200351 C5.26214126,17.4848883 5.09420058,17.8778072 4.92625991,18.270726 C4.73032911,18.7197761 4.50640821,19.1407606 4.31047742,19.6178763 C3.66670482,21.1334204 2.9949421,22.7050957 2.29518927,24.2767711 C1.79136724,25.4555276 1.25955509,26.6062185 0.783723167,27.7007781 C0.755733054,27.784975 0.699752828,27.8691719 0.671762714,27.9533688 C0.615782488,28.0095001 0.587792375,28.0095001 0.531812149,28.093697" id="Shape"></path>
                            <path d="M9.79653959,29.8057005 C9.79653959,29.8057005 6.10184466,30.45121 3.8346455,29.6653723 C3.8346455,29.6653723 5.15018081,22.9015552 8.64894495,15.6325567 L10.3563418,15.5483598 C10.3563418,15.5483598 10.8041837,18.7197761 10.6922232,20.5159765 C10.6082529,22.3121769 10.1604111,24.5574274 10.1324209,25.3151995 C10.1044308,26.0729715 9.79653959,28.8234034 9.79653959,29.8057005" id="Shape"></path>
                            <path d="M1.73538701,33.3981013 C1.73538701,33.3981013 5.20616104,33.650692 20.3488122,33.3981013 C20.3488122,33.3981013 20.3488122,33.9874795 20.292832,34.408464 C19.8729803,37.7482741 19.4811187,38.8147681 19.1452374,39.8531965 C18.8373461,40.8916248 18.4734746,42.098447 17.8576922,42.6597596 C17.8576922,42.6597596 10.4962924,43.0526785 1.84734746,41.1161499 C1.84734746,41.1161499 1.00764407,36.4291895 0.755733054,33.3700357 C0.783723167,33.1455106 1.11960452,33.3981013 1.73538701,33.3981013" id="Shape"></path>
                            <path d="M22.2521399,42.2668408 C22.2521399,42.2668408 22.3641004,40.3864435 22.6999817,38.5060462 C22.8399323,37.6640772 23.4277247,36.0643363 24.491349,34.7452516 C24.491349,34.7452516 25.3310524,35.9240081 25.5829634,38.5060462 C25.8068843,40.7793623 25.7509041,41.031953 25.7509041,42.1545783 C25.7509041,42.1826439 23.8755665,42.3791033 22.2521399,42.2668408" id="Shape"></path>
                            <path d="M27.9061428,33.34197 C27.9061428,33.34197 29.8094705,33.4261669 29.949421,33.4261669 C30.0893716,33.4261669 31.4608871,33.2577731 32.2446103,33.2858388 C32.2446103,33.2858388 32.2446103,36.3730582 32.2166202,37.2430928 C32.1886301,38.1131273 32.16064,38.2534555 32.0206894,41.1442155 C32.0206894,41.1442155 31.4049069,41.4248718 30.2293222,41.5932656 C30.2293222,41.5932656 29.1377077,38.0008648 28.9417769,37.4114866 C28.7458462,36.7940427 28.1020736,34.0716764 28.0181032,33.7348889 C27.9061428,33.3981013 27.9061428,33.34197 27.9061428,33.34197" id="Shape"></path>
                            <path d="M27.4303108,28.4585502 C27.7661922,27.2236624 29.0817275,25.427462 29.445599,25.0626088 C29.5295693,24.9503463 29.69751,24.7538868 29.8934408,24.5574274 C30.2573123,24.1645086 30.677164,23.7715897 30.9850552,23.4348022 C31.2089761,23.2102771 31.5728476,22.8734895 31.684808,22.7892926 C31.684808,22.7892926 31.8247586,22.6489645 32.2446103,22.8173583 C32.2446103,22.8173583 32.3845609,28.851469 32.2726004,29.0198628 C32.2726004,29.0198628 30.7331442,28.6830752 29.8374606,28.5988783 C29.445599,28.5708127 28.6058956,28.5146814 28.2420241,28.5427471 C27.8781527,28.5708127 27.7661922,28.5427471 27.7661922,28.5427471 C27.7661922,28.5427471 27.4862911,28.5146814 27.4303108,28.4585502" id="Shape"></path>
                            <path d="M14.0510368,13.1347155 C14.0510368,13.1347155 14.0790269,13.1066498 14.1629972,13.1908467 C14.358928,13.3873061 14.8067698,13.7521594 14.8067698,13.7521594 L16.094315,14.846719 L17.3538701,15.8290161 L18.557445,16.7832475 L19.9009704,17.7936103 L20.6846936,18.3549229 L20.8526343,18.4671854 L20.6846936,19.0565637 L20.5727331,19.4494825 L20.6567035,19.8424013 L21.0765552,20.2914515 L21.5523871,20.936961 L21.8882684,21.3579454 L22.1401795,22.1437831 L22.2241498,22.6770301 L22.1401795,23.1822115 L22.0562091,23.4348022 L21.6363574,23.9961148 C21.6363574,23.9961148 20.796654,23.9961148 19.3691583,23.3225396 C18.9213165,23.1260802 18.3895043,22.536702 17.7177416,21.8069955 C17.32588,21.3579454 17.0459789,20.9930922 16.7100975,20.3195171 C16.5141667,19.8985326 16.4022063,19.6459419 16.4301964,19.2810887 C16.4301964,19.1126949 16.5421568,19.0565637 16.570147,18.7197761 C16.570147,18.7197761 16.7100975,18.495251 16.8780382,18.2145947 C17.0179888,17.9900697 17.1019591,17.8778072 17.1019591,17.8778072 C17.1019591,17.8778072 17.2698998,17.7655446 17.2978899,17.7094134 C17.32588,17.6532821 17.4378405,17.4006914 17.3818602,17.3445602 C17.3538701,17.3164945 17.1579393,17.4568227 17.073969,17.4848883 C16.8500481,17.5690852 16.7380876,17.6252165 16.7380876,17.6252165 C16.7380876,17.6252165 16.4022063,17.7936103 16.3742162,17.5971508 C16.3182359,17.2322976 16.2902458,17.2322976 16.2902458,17.0077726 C16.2902458,16.6990506 16.2342656,16.7551819 16.4022063,16.3622631 C16.4581865,16.2500005 16.5141667,15.9974099 16.5141667,15.8851473 L16.5421568,15.4922285 L16.1782854,15.379966 C16.1782854,15.379966 15.7584337,15.379966 15.7024535,15.4080316 C14.8907402,15.9412786 14.8347599,16.4745256 14.4988786,17.4568227 C14.4428984,17.5971508 14.5268687,17.7936103 14.5268687,17.9900697 C14.5268687,18.1023322 14.5268687,18.2426604 14.5548588,18.3549229 C14.5548588,18.4110542 14.5828489,18.4391198 14.5828489,18.495251 C14.5548588,18.8320386 14.8067698,19.028498 14.8627501,19.2249575 C14.9467204,19.5056138 14.6668193,19.3933512 14.7507896,19.7020732 C14.7507896,19.7020732 14.6948094,19.6740076 14.5828489,19.7582045 C14.4988786,19.8424013 14.610839,20.1230577 14.6388292,20.2633858 C14.6668193,20.3756483 14.7227995,20.4879109 14.7787797,20.628239 C14.8347599,20.7685672 15.086671,21.2737485 15.3945622,21.8631268 C15.8703941,22.7331614 16.6261272,23.7435241 17.2698998,24.6135587 C17.5498009,25.0064775 17.829702,25.3432651 18.0256328,25.651987 C18.2775439,26.0168402 18.4734746,26.2974966 18.6134252,26.4378247 C18.6134252,26.4378247 19.6210693,27.7569094 19.9849408,28.4866158 C20.040921,28.626944 20.0969012,28.7392065 20.1248913,28.851469 C20.1248913,28.851469 20.1248913,28.8795346 20.0129309,28.8795346 C19.4251385,28.9076003 18.7253857,28.9356659 18.0256328,29.0759941 C17.4938207,29.1882566 17.1019591,29.2443878 16.4861766,29.3566504 C15.6744633,29.4969785 14.9467204,29.6092411 14.4708885,29.7215036 C14.3869181,29.7495692 14.358928,29.7215036 14.2749577,29.7495692 C14.2749577,29.7495692 14.1909873,29.7776348 14.1909873,29.6092411 C14.1629972,29.1321253 13.9950566,28.093697 13.9390763,26.718481 C13.9110862,25.9045777 13.5472147,23.5751303 13.2113334,21.161486 C13.0713828,20.094992 12.875452,18.9723668 12.7355015,18.0181353 C12.623541,17.3164945 12.5115806,16.670985 12.4556003,16.137738 C12.37163,15.5483598 12.3156498,15.1273753 12.2596695,14.9309159 C12.2596695,14.9309159 13.127363,14.2292751 14.0230467,13.3311749 C13.9670664,13.1908467 14.0230467,13.1627811 14.0510368,13.1347155" id="Shape"></path>
                            <path d="M25.6389436,22.0876519 L25.8348744,21.8069955 C25.8348744,21.8069955 26.0867854,22.0315206 26.1987459,21.9753893 L26.4506569,22.0315206 L26.5346272,21.6666674 L26.5906074,21.5544049 L26.6465877,21.470208 L26.7585481,21.470208 L27.3743306,21.7227986 L27.9061428,21.9192581 L28.2700142,22.0595862 L28.6338857,22.1718488 L28.6898659,22.1999144 L28.717856,22.2560456 L28.6618758,22.3121769 C28.6618758,22.3121769 28.214034,22.5647676 28.1020736,22.6489645 C27.9901131,22.7331614 27.5982515,22.8734895 27.5142812,22.9015552 C27.23438,22.9576864 26.6185976,23.1260802 26.0028151,23.069949 C25.5829634,23.0418833 25.6389436,22.9857521 25.6389436,22.9857521 C25.6389436,22.9857521 25.5269831,23.0418833 25.5269831,22.9296208 C25.498993,22.7892926 25.5269831,22.3963738 25.6389436,22.0876519" id="Shape"></path>
                            <path d="M15.7864238,5.41666685 C15.7864238,5.41666685 18.4454845,4.43436975 21.9162586,3.98531965 C23.7076258,3.7607946 27.458301,3.36787576 28.3819747,3.50820392 C28.3819747,3.50820392 28.9697671,4.93955111 29.2776583,5.83765132 C29.5855495,6.73575152 29.8934408,7.54965483 29.9214309,8.27936124 C29.9214309,8.27936124 26.2547261,9.4019865 22.532041,8.58808319 C18.9772967,7.80224551 16.5141667,7.35319541 16.0383348,7.12867036 C16.0103447,7.10060473 15.842404,6.06217637 15.7864238,5.41666685" id="Shape"></path>
                            <path d="M15.5625029,3.6765977 L15.2266215,3.53626955 C15.2266215,3.53626955 15.0586808,3.03108818 10.8321738,0.954231465 L11.140065,0.898100203 L11.4759464,0.84196894 C11.4759464,0.84196894 13.4632444,0.364853207 15.8703941,0.308721945 C18.2495537,0.252590682 21.4124365,0.196459419 22.8399323,0.673575152 C22.8119422,0.645509521 18.3335241,2.16105361 15.5625029,3.6765977" id="Shape"></path>
                            <path d="M8.87286585,12.9943873 C8.87286585,12.9943873 8.03316246,12.8259935 7.64130088,12.6575997 C7.24943929,12.4892059 5.62601273,11.6191714 5.48606217,11.4788432 C5.37410172,11.3385151 4.81429945,10.3281523 4.702339,9.90716786 C4.64635878,9.71070844 4.67434889,9.54231465 4.702339,8.25129561 C4.73032911,6.96027657 5.51405228,5.78152005 5.65400285,5.6411919 C6.185815,5.13601053 8.59296472,3.73272897 9.04080653,3.73272897 C9.85251981,3.73272897 12.0917289,4.49050101 12.37163,4.74309169 C12.5115806,4.88341985 12.9314323,5.89378258 12.9314323,5.89378258 L12.9594224,7.21286725 C12.9594224,7.21286725 12.875452,8.16709872 12.8474619,8.56001756 C12.8194718,8.92487076 12.8474619,10.1316929 12.2316794,10.8613993 C11.6158969,11.5349745 9.76854947,12.7979279 8.87286585,12.9943873" id="Shape"></path>
                        </g>
                        <g id="Group-2">
                            <g id="Group" transform="translate(52.901314, 0.000000)" fill="#064F9B">
                                <path d="M0.0279901131,50.7426614 L0.279901131,28.6830752 L9.32070766,28.5708127 C9.32070766,28.5708127 9.62859891,31.208982 9.12477687,32.8929199 L5.06621047,32.6403292 L4.81429945,37.3272897 L7.94919212,37.3834209 L8.00517235,40.7232311 L4.75831923,40.9196905 L4.45042798,50.7707271 L0.0279901131,50.7707271 L0.0279901131,50.7426614 Z" id="Shape"></path>
                                <path d="M30.1453518,29.2443878 L29.7814803,39.0392932 L26.8705086,27.8972375 L22.1401795,28.0095001 L21.8322882,35.5872205 C21.4684168,27.9533688 15.2546116,28.6830752 15.2546116,28.6830752 C11.8118277,28.5146814 10.2163913,30.7038007 9.54462857,33.0613137 C8.36904382,37.1869615 8.5369845,41.1161499 8.5369845,41.1161499 C7.97718223,52.6230587 14.4988786,51.2759084 14.4988786,51.2759084 C21.1885156,52.3143368 21.6363574,41.8458563 21.6363574,41.8458563 L21.3844464,50.2374801 L25.247082,50.2374801 L25.247082,36.8782396 L28.4379549,50.9110552 L33.2242643,50.854924 L33.7280863,29.4127816 L30.1453518,29.2443878 L30.1453518,29.2443878 Z M17.1019591,40.4145091 C17.1019591,40.4145091 16.9060283,48.4974109 14.7787797,47.9360983 C14.7787797,47.9360983 12.6795212,48.188689 12.9314323,40.2461153 C12.9314323,40.2461153 12.875452,32.1070822 15.4505424,31.9386885 C15.4505424,31.9106228 17.4938207,31.6019009 17.1019591,40.4145091 L17.1019591,40.4145091 Z" id="Shape"></path>
                                <path d="M71.5427291,29.4969785 L67.5401429,29.4408473 L67.4841627,42.631694 L62.8098138,27.7288438 L57.8275737,27.9253032 L57.407722,45.2698633 L52.0896005,45.6347165 L52.1175906,40.3022466 L55.3644437,40.1899841 L55.2524833,36.4853207 L52.0616104,36.3730582 L52.0616104,31.9386885 L56.9878703,31.6299665 L56.7919395,27.7569094 L47.527212,28.1217626 L47.527212,35.8117456 C46.4076075,32.7806574 45.3719733,31.9386885 43.4686456,30.45121 C41.565318,28.9637315 34.9316612,29.2724535 34.9316612,29.2724535 L35.2395524,50.0410207 C37.0309196,50.2936113 41.9011993,49.9848894 43.7765369,48.6377391 C46.9394197,46.3363573 47.6951527,42.7720221 47.6951527,42.7720221 L47.4992219,49.8445612 L57.2677714,49.7322987 L57.3237516,50.6023333 L61.85815,50.6303989 L61.7461895,39.8251309 C61.7461895,39.8251309 61.85815,39.8251309 61.9421203,40.0777215 C61.9701104,40.1619184 62.0540807,40.3864435 62.0820709,40.498706 C62.8937841,42.9684816 65.4408844,50.9110552 65.4408844,50.9110552 L71.7106698,50.9671865 L71.5427291,29.4969785 L71.5427291,29.4969785 Z M39.9139013,46.2521604 L39.4940496,33.5103638 C39.4940496,33.5103638 43.1887445,32.6403292 43.300705,40.0496559 C43.2727149,40.0215903 43.7765369,45.831176 39.9139013,46.2521604 L39.9139013,46.2521604 Z" id="Shape"></path>
                                <path d="M123.82826,23.1822115 C123.74429,22.9857521 123.63233,22.6770301 123.492379,22.3963738 C123.408409,22.22798 123.184488,21.9473237 123.100517,21.7508643 C121.589051,18.6355792 118.70607,12.9101904 118.70607,12.9101904 C122.148854,11.6191714 122.260814,7.49352356 122.260814,7.49352356 C122.764636,-1.12262525 110.784868,0.589378258 110.784868,0.589378258 L110.784868,18.5233167 L105.494736,18.8881699 L105.438756,13.5837656 L108.573649,13.471503 L108.573649,9.7668397 L105.326796,9.82297097 L105.438756,5.13601053 L110.225065,4.82728859 L110.029135,1.01036273 L100.820387,1.4313472 L100.764407,14.3696032 C99.7847532,14.7905877 96.6498605,14.6221939 96.6498605,14.6221939 C96.8457913,20.403714 95.0544241,19.7301388 95.0544241,19.7301388 C92.7312447,19.8424013 92.8432052,12.3488778 92.8432052,12.3488778 C93.039136,2.55397245 95.0544241,3.53626955 95.0544241,3.53626955 C96.6498605,3.42400702 96.3419693,7.66191735 96.3419693,7.66191735 L100.456516,7.77417988 C100.708427,6.06217637 100.344555,3.90112275 100.344555,3.90112275 C99.728773,-0.112262525 95.1104043,0.280656313 95.1104043,0.280656313 C93.0951162,0.336787576 91.1917885,1.09455962 89.8202729,3.3117445 C88.4767475,5.52892937 88.1688563,9.65457718 88.1688563,9.65457718 L88.1688563,1.40328157 L84.4181811,1.45941283 L84.7820526,15.2677034 L81.0873577,0.982297097 L76.4130088,1.17875652 L76.3010483,20.9650266 L73.8938986,1.48747846 L66.7564198,1.54360972 L64.7411316,14.2854063 L60.5706048,14.537997 C60.374674,20.0107951 58.7792375,18.9162355 58.7792375,18.9162355 C56.5120384,19.2249575 56.9878703,11.7594995 56.9878703,11.7594995 C57.6036528,4.37823849 59.5629607,4.18177907 59.5629607,4.18177907 C61.6622192,4.68696043 60.5706048,8.36355814 60.5706048,8.36355814 L64.7971118,8.36355814 C65.9167164,5.50086374 64.9930426,3.84499149 64.9930426,3.84499149 C63.8734381,0.42098447 59.7309014,0.617443889 59.7309014,0.617443889 C51.725729,1.45941283 52.1735708,13.1908467 52.1735708,13.1908467 C51.9216598,22.9857521 58.4993364,22.6208989 58.4993364,22.6208989 C62.865794,23.294474 63.7894678,19.7862701 63.7894678,19.7862701 L63.2856457,23.7154585 L67.9599946,23.4628678 L68.6877376,18.4671854 L71.262828,18.5233167 L71.9345907,22.6489645 L80.0517235,22.6489645 L80.1077037,12.9101904 L83.1866161,23.6312616 L88.112876,23.6312616 L88.1688563,15.9974099 C88.9805696,23.5751303 94.9144735,22.5928332 94.9144735,22.5928332 C99.5888224,23.0980146 100.624457,18.1023322 100.624457,18.1023322 L100.736417,22.9576864 L110.504967,22.761227 L110.700897,23.7435241 L115.011375,23.4909334 L115.263286,15.8570817 L118.957981,23.5751303 L123.940221,23.6873928 C123.912231,23.6873928 124.052181,23.6593272 123.82826,23.1822115 L123.82826,23.1822115 Z M68.8836683,14.5660627 L70.1152333,6.56735773 L71.0389071,14.6502596 L68.8836683,14.5660627 L68.8836683,14.5660627 Z M117.782396,7.80224551 C117.782396,7.80224551 117.670435,10.8333337 115.151325,10.4404149 L115.403236,4.57469791 C115.375246,4.60276354 118.398178,4.85535422 117.782396,7.80224551 L117.782396,7.80224551 Z" id="Shape"></path>
                                <path d="M51.9496499,23.0418833 L51.6697488,1.68393788 L47.6951527,1.68393788 L47.6951527,14.7063908 L43.2727149,0.477115733 L38.122534,0.673575152 L37.9825835,6.90414531 C36.8349888,0.140328157 25.8908546,1.51554409 25.8908546,1.51554409 L25.247082,21.1895517 L22.9518927,0.392918839 L15.1986314,0.673575152 L13.2673136,15.2677034 C12.623541,13.246978 10.4962924,12.2927465 10.4962924,12.2927465 C13.6311851,9.99136475 12.9874125,6.96027657 12.9874125,6.96027657 C13.1833433,-0.701640783 0.923673732,1.40328157 0.923673732,1.40328157 L0.727742941,23.294474 C11.6998673,24.7819525 12.623541,19.7582045 12.623541,19.7582045 L12.2596695,23.1260802 L16.8780382,23.4067365 L17.32588,19.4214169 L20.4047925,19.3652856 L21.0205749,23.0418833 L29.8094705,23.2664084 L30.1453518,15.1835065 L33.5601456,23.6873928 L38.0665538,23.6873928 L37.7866527,22.761227 L42.2090906,22.761227 L42.1251202,11.8717621 L45.7078547,23.0418833 L51.9496499,23.0418833 L51.9496499,23.0418833 Z M5.79395341,5.22020743 C5.79395341,5.22020743 8.56497461,5.41666685 8.45301416,7.35319541 C8.45301416,7.35319541 8.64894495,9.93523349 5.79395341,9.8510366 L5.79395341,5.22020743 L5.79395341,5.22020743 Z M5.79395341,19.5336794 L5.87792375,13.4434374 C5.87792375,13.4434374 8.5369845,13.7240937 8.64894495,16.5867881 C8.64894495,16.5867881 9.01281642,19.6178763 5.79395341,19.5336794 L5.79395341,19.5336794 Z M17.6617614,15.3238347 L19.0332769,5.02374801 L19.9849408,15.379966 L17.6617614,15.3238347 L17.6617614,15.3238347 Z M30.2853024,11.5069088 L30.5652035,5.41666685 C30.5652035,5.41666685 33.5041654,5.41666685 33.7000962,8.27936124 C33.7000962,8.25129561 33.7840665,11.9559589 30.2853024,11.5069088 L30.2853024,11.5069088 Z M37.4227812,21.7227986 L34.5957798,13.6398968 C34.5957798,13.6398968 35.883325,13.6960281 37.6746922,11.422712 L37.4227812,21.7227986 L37.4227812,21.7227986 Z" id="Shape"></path>
                            </g>
                            <g id="Group" transform="translate(0.000000, 1.122625)">
                                <path d="M5.96189409,19.561745 C5.70998307,19.8143357 6.77360737,13.471503 7.58532065,12.4611403 C7.58532065,12.4611403 8.22909325,16.3061318 8.70492518,17.3445602 C8.70492518,17.3445602 6.52169635,19.028498 5.96189409,19.561745" id="Shape" fill="#FFD703"></path>
                                <path d="M42.7968829,0.336787576 C15.7864238,-0.252590682 1.25955509,2.66623498 1.25955509,2.66623498 C-1.48347599,38.1692586 1.45548588,49.3113142 1.45548588,49.3113142 C14.0790269,50.7145958 43.2167346,49.4235768 43.2167346,49.4235768 C43.6645764,6.90414531 42.7968829,0.336787576 42.7968829,0.336787576 M30.8451046,46.7573418 C30.8451046,46.7573418 28.4939351,46.9818668 27.9061428,46.8134731 C27.9061428,46.8134731 27.9341329,44.8769445 28.4379549,43.0807441 C28.8298165,41.7335938 29.2496682,40.4145091 29.8094705,39.965459 C29.8094705,39.965459 30.1453518,40.274181 30.3972628,41.5090687 C30.6491738,42.8281534 30.9570651,44.9330758 30.8451046,46.7573418 M31.4888772,27.5323843 C31.180986,27.5323843 30.929075,27.5043187 30.9850552,27.251728 C30.9850552,27.251728 30.9850552,27.1394655 31.1250058,26.8307436 C31.1250058,26.8026779 31.1529959,26.7746123 31.180986,26.7465467 L31.2089761,26.7465467 C31.2089761,26.7465467 31.2369662,26.7746123 31.2369662,26.8026779 C31.2649563,26.8307436 31.3209366,26.8868748 31.3769168,26.9430061 C31.3769168,26.9430061 31.4049069,27.0552686 31.6008377,27.0833342 C31.6008377,27.0833342 31.684808,27.0833342 31.6568179,26.9430061 C31.6288278,26.8588092 31.684808,26.8588092 31.7127981,26.8588092 C31.7407883,26.9149404 31.8527487,27.027203 31.9367191,27.0833342 C31.9926993,27.1113999 31.9926993,27.1394655 32.0766696,27.1113999 C32.1046597,27.0833342 32.0766696,27.0552686 32.0766696,27.0552686 C32.0766696,27.027203 32.0766696,26.9991373 32.0486795,26.9149404 C32.0206894,26.8588092 32.0486795,26.8026779 32.0486795,26.718481 C32.0486795,26.6623498 32.0486795,26.6062185 32.0766696,26.5500872 C32.0766696,26.5220216 32.1326498,26.5220216 32.1326498,26.493956 C32.16064,26.4658903 32.1046597,26.4097591 32.1326498,26.3536278 C32.1326498,26.3536278 32.0766696,26.3816934 32.2166202,26.2413653 C32.2166202,26.2413653 32.2726004,26.2413653 32.3285806,26.2132997 C32.3845609,26.185234 32.3285806,26.1010371 32.3565707,26.0449059 C32.412551,25.960709 32.3565707,25.9887746 32.4685312,25.8765121 C32.7764224,25.5677901 32.7764224,25.651987 33.4761753,25.0345431 C33.4761753,25.0345431 33.7560764,24.9503463 33.9799973,24.2206398 C34.147938,23.6873928 34.2878886,23.069949 34.3438688,22.5928332 C34.3438688,22.4805707 34.3438688,22.5086363 34.3718589,22.3963738 C34.3718589,22.2841113 34.3438688,22.2560456 34.3438688,22.1437831 C34.3438688,21.7789299 34.2878886,21.4140767 34.1759281,21.0492235 C34.1759281,21.0492235 33.9520072,20.6563047 33.6441159,20.3475827 C33.168284,19.8985326 32.6364719,19.4775481 32.1886301,19.2249575 C32.16064,19.1968918 32.1326498,19.0846293 31.684808,18.9162355 C31.3209366,18.7759074 31.2649563,18.6917105 30.4812332,18.5794479 C29.445599,18.4391198 29.7534902,18.495251 29.4735891,18.5794479 C29.3336385,18.6075136 29.3896188,18.6917105 29.1377077,18.7197761 C28.9697671,18.7478417 28.7738363,18.8320386 28.4939351,18.9162355 C28.0181032,19.0846293 27.4023207,19.5898107 27.1504097,19.8424013 C26.9264888,20.094992 27.0944295,19.9265982 26.9264888,20.1511233 C26.9264888,20.1511233 26.9544789,20.2072546 26.982469,20.2353202 C27.0384493,20.2914515 27.0944295,20.3475827 27.2063899,20.403714 C27.2063899,20.403714 26.7025679,20.8808297 26.6745778,21.5544049 C26.6745778,21.5544049 25.7788942,21.8069955 25.6109535,24.2487055 C25.6109535,24.2487055 25.5269831,24.3890336 25.8628645,24.6977556 C25.8628645,24.6977556 26.8705086,25.6239214 27.2063899,26.8307436 C27.2063899,26.8307436 27.5142812,27.3359249 26.6745778,28.0656313 C26.6745778,28.0656313 26.6185976,28.1217626 26.0308052,27.9533688 C24.5473292,27.5323843 22.8959125,26.0168402 22.3920905,24.6696899 C22.2521399,24.2767711 22.0841992,23.9961148 21.9722388,23.6031959 C21.9722388,23.6031959 22.0002289,23.4348022 22.1121894,23.2383427 C22.2521399,22.9576864 22.4480707,22.5647676 22.7279718,22.2841113 C22.7279718,22.2841113 23.3157642,21.6666674 22.4480707,21.7508643 C22.4480707,21.7508643 22.3361103,21.7789299 22.1401795,21.8350612 C22.0562091,21.8631268 21.9442487,21.9473237 21.8042981,21.9753893 C21.8042981,21.9753893 21.7483179,21.9753893 21.7483179,21.8631268 C21.7203278,21.6666674 21.7483179,21.2456829 21.7483179,20.9930922 C21.7483179,20.628239 22.0002289,20.4317796 21.9442487,19.9546639 C21.9442487,19.9546639 21.8882684,19.5898107 21.4684168,19.870467 C21.4684168,19.870467 21.1885156,18.8320386 19.9289605,20.6563047 C19.1452374,21.7789299 19.6490594,23.4628678 19.8449902,23.9119179 C19.8449902,23.9119179 19.8449902,23.9680492 19.8170001,23.9961148 C19.7610199,24.052246 19.7050396,24.0803117 19.5650891,24.1645086 C19.4251385,24.2767711 19.5091088,24.360968 19.5650891,24.5012962 C19.5930792,24.6135587 19.6490594,24.8380837 19.9569506,25.5958558 C20.0969012,25.9045777 20.3768023,26.4378247 20.8246441,27.1394655 C21.3844464,28.0375657 22.1121894,29.1040597 23.3997346,30.675735 C23.3997346,30.675735 24.2674281,31.6299665 24.8832105,33.0893793 C25.247082,33.9032826 25.2190919,35.2784986 25.2190919,36.0924019 C25.2190919,38.7025056 24.8272303,41.9019876 24.2114478,43.8665818 C24.1274775,44.1191724 24.0714973,44.3436975 24.015517,44.5401569 C23.9875269,44.6243538 23.8755665,44.7085507 23.8475764,44.7927476 C23.8195863,44.8769445 23.8755665,44.9611414 23.8475764,45.0453383 C23.3997346,46.2802261 23.1758136,46.4205542 23.0918433,46.5608824 C23.007873,46.7012105 23.0918433,46.8134731 22.755962,46.8415387 C22.6440015,46.8415387 22.4760608,46.8134731 22.2241498,46.8134731 L21.1045453,46.8134731 C20.7686639,46.8134731 20.5167529,46.7573418 20.5167529,46.7573418 L20.3488122,46.7012105 L20.2648419,46.89767 L18.9772967,46.8415387 L18.1655834,46.7854074 L17.829702,46.7854074 C17.829702,46.7854074 17.6337713,46.8415387 17.4658306,46.8134731 C17.2978899,46.8134731 17.1299492,46.7573418 17.1299492,46.7573418 L16.8780382,46.8134731 C16.8780382,46.8134731 15.8144139,46.6731449 15.6184831,46.7012105 C15.5065227,46.7292762 15.4785325,46.7292762 15.4505424,46.7292762 C15.4505424,46.7292762 15.4505424,46.7854074 15.3105919,46.7573418 C14.7787797,46.6731449 13.4912345,46.5047511 13.4912345,46.5047511 C13.4912345,46.5047511 13.0713828,46.4766855 12.5395707,46.4205542 C11.9237882,46.364423 11.1960452,46.2521604 11.1960452,46.2521604 C11.1960452,46.2521604 10.4683023,46.0837666 9.68457913,45.9715041 C9.43266812,45.9434385 9.20874721,45.9153729 8.98482631,45.8592416 C8.45301416,45.7189134 8.06115257,45.6066509 7.94919212,45.5785853 C7.64130088,45.4943884 7.38938986,45.4943884 7.38938986,45.2698633 C7.38938986,45.2698633 7.33340963,45.0453383 7.24943929,44.3717631 C7.19345907,43.8665818 7.08149862,43.4175317 7.02551839,42.8842847 C6.80159748,41.2284124 6.57767658,38.9550963 6.24179522,36.2046644 C6.185815,35.8117456 6.15782488,34.8855797 6.12983477,34.4645953 C6.12983477,34.3803984 6.04586443,34.2681359 6.04586443,34.183939 C6.01787432,33.2858388 5.9898842,32.6122636 5.96189409,31.742229 C5.90591386,30.1986193 5.82194353,28.626944 5.82194353,27.027203 C5.82194353,26.718481 5.7659633,26.718481 5.7659633,26.4097591 C5.7659633,26.1010371 5.82194353,25.7923152 5.82194353,25.4835932 C5.84993364,24.3329024 5.84993364,23.1822115 5.93390398,22.0315206 C5.9898842,21.3860111 5.9898842,20.628239 6.07385454,19.9827295 C6.10184466,19.7582045 6.21380511,19.5336794 6.21380511,19.33722 C6.185815,18.9162355 6.21380511,18.7197761 6.26978534,18.2987916 C6.38174579,17.5410196 6.54968647,16.8674444 6.68963703,16.1658036 C6.85757771,15.2396378 7.22144918,14.0889469 7.50135031,13.3031093 C7.52934042,13.246978 7.4733602,13.1908467 7.50135031,13.1347155 C7.64130088,12.7698623 7.72527122,12.4611403 7.92120201,12.1243527 C8.03316246,11.9559589 7.92120201,12.0401558 8.00517235,11.8436964 C8.08914269,11.7033683 8.03316246,11.5911057 8.1171328,11.4507776 C8.22909325,11.2543182 8.50899438,10.4965461 8.84487574,9.62651155 C8.87286585,9.54231465 8.98482631,9.51424902 9.01281642,9.43005213 C9.34869778,8.70034571 9.48864834,8.47582066 10.1044308,7.46545793 C10.1044308,7.46545793 10.636243,7.26899851 11.5319266,6.96027657 C11.8398178,6.84801404 11.8118277,6.87607968 12.2036893,6.73575152 C12.3436399,6.67962026 12.5395707,6.56735773 12.5395707,6.5392921 L12.5395707,6.5392921 L12.5395707,6.5392921 C12.5675608,6.5392921 12.8194718,6.51122647 13.2393235,6.39896394 C13.351284,6.37089831 13.5192246,6.31476705 13.7151554,6.20250452 C13.855106,6.14637326 14.0230467,6.03411074 14.107017,6.0060451 C14.2469676,5.97797947 14.3869181,6.0060451 14.5268687,5.97797947 C14.8347599,5.92184821 15.1146611,5.78152005 15.4505424,5.72538879 C15.8144139,5.66925753 16.1502953,5.556995 16.5421568,5.50086374 C17.073969,5.41666685 17.6057811,5.30440432 18.1655834,5.24827306 C18.5014648,5.22020743 18.7813659,5.13601053 19.0892571,5.1079449 C19.1452374,5.1079449 19.2292077,4.99568238 19.2851879,4.99568238 C19.3411682,4.99568238 19.3971484,5.07987927 19.4531286,5.05181364 C20.0129309,5.02374801 20.5727331,4.99568238 21.0765552,4.96761675 C21.5523871,4.93955111 21.9722388,4.93955111 22.3641004,4.91148548 C22.4200806,4.91148548 22.5040509,4.85535422 22.5600312,4.82728859 C22.6160114,4.82728859 22.6440015,4.88341985 22.6999817,4.88341985 C22.7839521,4.88341985 22.8119422,4.77115733 22.8959125,4.77115733 C22.9798829,4.77115733 23.007873,4.79922296 23.0918433,4.79922296 L23.2877741,4.79922296 C23.3437543,4.79922296 23.3997346,4.88341985 23.4557148,4.88341985 L24.2674281,4.88341985 C24.3513984,4.88341985 24.4073786,5.02374801 24.4633589,5.02374801 C24.6872798,5.02374801 24.8552204,4.96761675 25.0511512,4.96761675 C25.3870326,4.93955111 25.6669337,4.93955111 25.9468348,4.96761675 C26.2827162,5.02374801 26.6185976,5.13601053 26.9544789,5.16407616 C27.0944295,5.1921418 27.1224196,5.22020743 27.2623702,5.24827306 C27.3183504,5.24827306 27.4862911,5.36053558 27.5422713,5.36053558 C27.6542317,5.38860122 27.7382021,5.30440432 27.8221724,5.33246995 C28.0181032,5.36053558 28.1860439,5.36053558 28.3539846,5.44473248 C28.465945,5.50086374 28.4939351,5.556995 28.6058956,5.58506063 C28.7458462,5.61312627 28.9977572,5.6411919 29.1656979,5.69732316 C29.5855495,5.80958569 29.9774111,5.89378258 30.3132925,6.03411074 C31.684808,6.62348899 32.6084818,7.01640783 33.3362247,8.08290182 C33.420195,8.19516435 33.420195,8.39162377 33.4761753,8.50388629 C33.5881357,8.75647697 33.7000962,8.98100203 33.8120566,9.26165834 C34.0079874,9.73877407 34.3158787,10.2720211 34.4558292,10.9455962 C34.5118095,11.2543182 34.6237699,11.3385151 34.6797501,11.647237 C34.7077402,11.7594995 34.6797501,11.8156308 34.7077402,11.9278933 C34.7357304,12.0401558 34.7917106,12.0401558 34.8197007,12.1524184 C35.0716117,13.1066498 35.3515128,14.1170126 35.6034239,15.0993097 C35.631414,15.1835065 35.5754338,15.2115722 35.6034239,15.2957691 C35.631414,15.4080316 35.6034239,15.4922285 35.631414,15.604491 C35.7993547,16.2500005 35.9113151,16.8955101 36.0232756,17.4848883 C36.135236,17.9900697 36.1632261,18.3829885 36.1912162,18.6636448 C36.2751866,19.1968918 36.2751866,19.4775481 36.387147,20.0107951 C36.387147,20.0107951 36.387147,20.094992 36.4431273,20.2633858 C36.4711174,20.3195171 36.4991075,20.4317796 36.4991075,20.5159765 C36.4991075,20.628239 36.6110679,20.7685672 36.5550877,20.8808297 C36.387147,21.2456829 36.4151371,21.4140767 36.4151371,21.6386018 C36.4151371,21.6386018 36.4991075,21.8350612 36.5830778,22.0315206 C36.6950383,22.3121769 36.9189592,22.1999144 36.4711174,23.4628678 C36.1912162,24.2767711 35.2395524,25.427462 34.2039182,26.2132997 C34.1199479,26.2974966 34.0359775,26.3816934 33.9520072,26.4658903 C33.8680369,26.5220216 33.7560764,26.5500872 33.6721061,26.6062185 C33.3642148,26.8307436 32.7764224,27.1955968 32.3285806,27.1955968 C32.2726004,27.4481874 31.8527487,27.5043187 31.4888772,27.5323843 M37.1708702,45.8031103 C37.1708702,45.8031103 36.4711174,46.0837666 35.7153843,46.1960292 C35.7153843,46.1960292 33.2522544,38.9270307 33.0003433,35.6714174 C32.7484323,32.4158042 33.5321555,31.3212446 37.2268504,27.6165812 C37.2268504,27.6446469 37.5067516,41.9019876 37.1708702,45.8031103" id="Shape" fill="#064F9B"></path>
                            </g>
                        </g>
                    </g>
                </g>
            </g>
        </g>
    </g>
</svg>