<svg width="215.37247314453126px" height="84.0049835205078px" xmlns="http://www.w3.org/2000/svg" viewBox="142.3137634277344 32.9975082397461 215.37247314453126 84.0049835205078" style="background: rgb(29, 63, 114);" preserveAspectRatio="xMidYMid"><defs><filter id="editing-extrude-glow"><feFlood flood-color="#d8ebf9" result="flood-1"></feFlood><feMorphology operator="erode" radius="1" in="SourceAlpha" result="erode"></feMorphology><feComposite operator="in" in="flood-1" in2="erode" result="comp1"></feComposite><feConvolveMatrix order="3,3" divisor="1" in="comp1" result="convolve" kernelMatrix="0 0 0 1 1 1 0 0 0"></feConvolveMatrix><feOffset dx="-3" dy="0" in="convolve" result="extrude"></feOffset><feComposite operator="in" in="flood-1" in2="extrude" result="comp-extrude"></feComposite><feFlood flood-color="#71c2cc" result="flood-2"></feFlood><feComposite operator="in" in="flood-2" in2="SourceAlpha" result="comp2"></feComposite><feMorphology operator="dilate" radius="1" in="comp2" result="dilate"></feMorphology><feOffset dx="-4.5" dy="0" in="dilate" result="offset"></feOffset><feGaussianBlur in="offset" stdDeviation="5.8" result="blur"></feGaussianBlur><feComponentTransfer in="blur" result="shadow"><feFuncA type="linear" slope="0.8" intercept="-0.2"></feFuncA></feComponentTransfer><feMerge><feMergeNode in="shadow"></feMergeNode><feMergeNode in="comp-extrude"></feMergeNode><feMergeNode in="SourceGraphic"></feMergeNode></feMerge></filter></defs><g filter="url(#editing-extrude-glow)"><g transform="translate(179.32000517845154, 89.79999923706055)"><path d="M18.88-21.20L18.88-21.20L18.88-21.20Q15.64-21.20 13.28-22.28L13.28-22.28L12-15.80L19.72-15.80L19.72-15.80Q19.72-13.68 18.66-12.34L18.66-12.34L18.66-12.34Q17.60-11 15.68-11L15.68-11L15.68-11Q13.60-11 11.68-11.76L11.68-11.76L11.68-11.76Q11.28-11.92 11.24-11.96L11.24-11.96L8.96 0L0.24 0L5.32-26.40L23.16-26.40L23.16-26.40Q23.16-23.96 22.02-22.58L22.02-22.58L22.02-22.58Q20.88-21.20 18.88-21.20ZM30.60 0.80L30.60 0.80L30.60 0.80Q21.80 0.80 21.80-7.48L21.80-7.48L21.80-7.48Q21.80-13.36 25.04-17.16L25.04-17.16L25.04-17.16Q28.48-21.20 34.44-21.20L34.44-21.20L34.44-21.20Q38.76-21.20 40.96-19.20L40.96-19.20L40.96-19.20Q43.16-17.20 43.16-13L43.16-13L43.16-13Q43.16-6.60 39.72-2.88L39.72-2.88L39.72-2.88Q36.36 0.80 30.60 0.80ZM31.64-16.60L31.64-16.60L31.64-16.60Q31.16-15.52 30.78-13.90L30.78-13.90L30.78-13.90Q30.40-12.28 29.92-9.72L29.92-9.72L29.92-9.72Q29.44-7.16 29.44-4L29.44-4L29.44-4Q29.44-2.96 29.78-2.28L29.78-2.28L29.78-2.28Q30.12-1.60 31.04-1.60L31.04-1.60L31.04-1.60Q31.96-1.60 32.54-2.04L32.54-2.04L32.54-2.04Q33.12-2.48 33.56-3.52L33.56-3.52L33.56-3.52Q34.36-5.36 35-8.78L35-8.78L35-8.78Q35.64-12.20 35.70-13.68L35.70-13.68L35.70-13.68Q35.76-15.16 35.76-16.26L35.76-16.26L35.76-16.26Q35.76-17.36 35.44-18.08L35.44-18.08L35.44-18.08Q35.12-18.80 34.22-18.80L34.22-18.80L34.22-18.80Q33.32-18.80 32.72-18.24L32.72-18.24L32.72-18.24Q32.12-17.68 31.64-16.60ZM62.44 0.80L62.44 0.80L62.44 0.80Q57.60 0.80 57.60-2.96L57.60-2.96L57.60-2.96Q57.64-4 57.96-5.76L57.96-5.76L58.68-9.44L58.68-9.44Q59.76-14.64 59.76-15.80L59.76-15.80L59.76-15.80Q59.76-18.12 58.40-18.12L58.40-18.12L58.40-18.12Q56.12-18.12 54.92-12.16L54.92-12.16L52.56 0L44.52 0.80L48.68-20.44L55.24-21.20L54.60-17.28L54.60-17.28Q56.48-21.20 62.24-21.20L62.24-21.20L62.24-21.20Q65.04-21.20 66.22-20.02L66.22-20.02L66.22-20.02Q67.40-18.84 67.40-16.20L67.40-16.20L67.40-16.20Q67.40-13.72 66.12-7.92L66.12-7.92L66.12-7.92Q65.52-5.32 65.52-4.34L65.52-4.34L65.52-4.34Q65.52-3.36 66.06-2.80L66.06-2.80L66.06-2.80Q66.60-2.24 67.40-2.16L67.40-2.16L67.40-2.16Q67-0.80 65.62 0L65.62 0L65.62 0Q64.24 0.80 62.44 0.80ZM83.20-21.20L83.20-21.20L83.20-21.20Q84.64-21.20 85.76-20.88L85.76-20.88L85.76-20.88Q85.80-21.04 85.88-21.48L85.88-21.48L86.08-22.72L86.08-22.72Q86.24-23.52 86.48-24.84L86.48-24.84L87.12-28L95.08-28.80L90.64-5.60L90.64-5.60Q90.60-5.36 90.60-4.96L90.60-4.96L90.60-4.32L90.60-4.32Q90.60-3.44 91.04-2.78L91.04-2.78L91.04-2.78Q91.48-2.12 92.20-2.12L92.20-2.12L92.20-2.12Q91.40-0.24 88.96 0.56L88.96 0.56L88.96 0.56Q88.12 0.80 86.94 0.80L86.94 0.80L86.94 0.80Q85.76 0.80 84.68 0.18L84.68 0.18L84.68 0.18Q83.60-0.44 83.28-1.48L83.28-1.48L83.28-1.48Q82.64-0.44 81.36 0.18L81.36 0.18L81.36 0.18Q80.08 0.80 78.22 0.80L78.22 0.80L78.22 0.80Q76.36 0.80 74.82 0.32L74.82 0.32L74.82 0.32Q73.28-0.16 72.32-1.20L72.32-1.20L72.32-1.20Q70.56-3.24 70.56-7.88L70.56-7.88L70.56-7.88Q70.56-13.88 74.08-17.52L74.08-17.52L74.08-17.52Q77.60-21.20 83.20-21.20ZM82.92-18.80L82.92-18.80L82.92-18.80Q81.44-18.80 80.64-17.20L80.64-17.20L80.64-17.20Q79.84-15.60 79.02-11.64L79.02-11.64L79.02-11.64Q78.20-7.68 78.20-4.12L78.20-4.12L78.20-4.12Q78.20-1.68 79.64-1.68L79.64-1.68L79.64-1.68Q80.92-1.68 81.82-2.96L81.82-2.96L81.82-2.96Q82.72-4.24 83.08-6.36L83.08-6.36L85.24-18.08L85.24-18.08Q84.40-18.80 82.92-18.80ZM104.32 0.80L104.32 0.80L104.32 0.80Q95.52 0.80 95.52-7.48L95.52-7.48L95.52-7.48Q95.52-13.36 98.76-17.16L98.76-17.16L98.76-17.16Q102.20-21.20 108.16-21.20L108.16-21.20L108.16-21.20Q112.48-21.20 114.68-19.20L114.68-19.20L114.68-19.20Q116.88-17.20 116.88-13L116.88-13L116.88-13Q116.88-6.60 113.44-2.88L113.44-2.88L113.44-2.88Q110.08 0.80 104.32 0.80ZM105.36-16.60L105.36-16.60L105.36-16.60Q104.88-15.52 104.50-13.90L104.50-13.90L104.50-13.90Q104.12-12.28 103.64-9.72L103.64-9.72L103.64-9.72Q103.16-7.16 103.16-4L103.16-4L103.16-4Q103.16-2.96 103.50-2.28L103.50-2.28L103.50-2.28Q103.84-1.60 104.76-1.60L104.76-1.60L104.76-1.60Q105.68-1.60 106.26-2.04L106.26-2.04L106.26-2.04Q106.84-2.48 107.28-3.52L107.28-3.52L107.28-3.52Q108.08-5.36 108.72-8.78L108.72-8.78L108.72-8.78Q109.36-12.20 109.42-13.68L109.42-13.68L109.42-13.68Q109.48-15.16 109.48-16.26L109.48-16.26L109.48-16.26Q109.48-17.36 109.16-18.08L109.16-18.08L109.16-18.08Q108.84-18.80 107.94-18.80L107.94-18.80L107.94-18.80Q107.04-18.80 106.44-18.24L106.44-18.24L106.44-18.24Q105.84-17.68 105.36-16.60ZM136.16 0.80L136.16 0.80L136.16 0.80Q131.32 0.80 131.32-2.96L131.32-2.96L131.32-2.96Q131.36-4 131.68-5.76L131.68-5.76L132.40-9.44L132.40-9.44Q133.48-14.64 133.48-15.80L133.48-15.80L133.48-15.80Q133.48-18.12 132.12-18.12L132.12-18.12L132.12-18.12Q129.84-18.12 128.64-12.16L128.64-12.16L126.28 0L118.24 0.80L122.40-20.44L128.96-21.20L128.32-17.28L128.32-17.28Q130.20-21.20 135.96-21.20L135.96-21.20L135.96-21.20Q138.76-21.20 139.94-20.02L139.94-20.02L139.94-20.02Q141.12-18.84 141.12-16.20L141.12-16.20L141.12-16.20Q141.12-13.72 139.84-7.92L139.84-7.92L139.84-7.92Q139.24-5.32 139.24-4.34L139.24-4.34L139.24-4.34Q139.24-3.36 139.78-2.80L139.78-2.80L139.78-2.80Q140.32-2.24 141.12-2.16L141.12-2.16L141.12-2.16Q140.72-0.80 139.34 0L139.34 0L139.34 0Q137.96 0.80 136.16 0.80Z" fill="#5699d2"></path></g></g><style>text {
  font-size: 64px;
  font-family: Arial Black;
  dominant-baseline: central;
  text-anchor: middle;
}</style></svg>