<svg width="332.58751220703124px" height="121.6174835205078px" xmlns="http://www.w3.org/2000/svg"
  viewBox="83.70624389648438 14.191258239746098 332.58751220703124 121.6174835205078"
  style="background: rgba(0, 0, 0, 0);" preserveAspectRatio="xMidYMid">
  <defs>
    <filter id="editing-extrude-glow">
      <feFlood flood-color="#333333" result="flood-1"></feFlood>
      <feMorphology operator="erode" radius="1" in="SourceAlpha" result="erode"></feMorphology>
      <feComposite operator="in" in="flood-1" in2="erode" result="comp1"></feComposite>
      <feConvolveMatrix order="3,3" divisor="1" in="comp1" result="convolve" kernelMatrix="0 0 0 1 1 1 0 0 0">
      </feConvolveMatrix>
      <feOffset dx="-3" dy="0" in="convolve" result="extrude"></feOffset>
      <feComposite operator="in" in="flood-1" in2="extrude" result="comp-extrude"></feComposite>
      <feFlood flood-color="#000000" result="flood-2"></feFlood>
      <feComposite operator="in" in="flood-2" in2="SourceAlpha" result="comp2"></feComposite>
      <feMorphology operator="dilate" radius="1" in="comp2" result="dilate"></feMorphology>
      <feOffset dx="-4.5" dy="0" in="dilate" result="offset"></feOffset>
      <feGaussianBlur in="offset" stdDeviation="5.8" result="blur"></feGaussianBlur>
      <feComponentTransfer in="blur" result="shadow">
        <feFuncA type="linear" slope="0.8" intercept="-0.2"></feFuncA>
      </feComponentTransfer>
      <feMerge>
        <feMergeNode in="shadow"></feMergeNode>
        <feMergeNode in="comp-extrude"></feMergeNode>
        <feMergeNode in="SourceGraphic"></feMergeNode>
      </feMerge>
    </filter>
  </defs>
  <g filter="url(#editing-extrude-glow)">
    <g transform="translate(136.9150057733059, 98.68000030517578)">
      <path
        d="M30.21-33.92L30.21-33.92L30.21-33.92Q25.02-33.92 21.25-35.65L21.25-35.65L19.20-25.28L31.55-25.28L31.55-25.28Q31.55-21.89 29.86-19.74L29.86-19.74L29.86-19.74Q28.16-17.60 25.09-17.60L25.09-17.60L25.09-17.60Q21.76-17.60 18.69-18.82L18.69-18.82L18.69-18.82Q18.05-19.07 17.98-19.14L17.98-19.14L14.34 0L0.38 0L8.51-42.24L37.06-42.24L37.06-42.24Q37.06-38.34 35.23-36.13L35.23-36.13L35.23-36.13Q33.41-33.92 30.21-33.92ZM48.96 1.28L48.96 1.28L48.96 1.28Q34.88 1.28 34.88-11.97L34.88-11.97L34.88-11.97Q34.88-21.38 40.06-27.46L40.06-27.46L40.06-27.46Q45.57-33.92 55.10-33.92L55.10-33.92L55.10-33.92Q62.02-33.92 65.54-30.72L65.54-30.72L65.54-30.72Q69.06-27.52 69.06-20.80L69.06-20.80L69.06-20.80Q69.06-10.56 63.55-4.61L63.55-4.61L63.55-4.61Q58.18 1.28 48.96 1.28ZM50.62-26.56L50.62-26.56L50.62-26.56Q49.86-24.83 49.25-22.24L49.25-22.24L49.25-22.24Q48.64-19.65 47.87-15.55L47.87-15.55L47.87-15.55Q47.10-11.46 47.10-6.40L47.10-6.40L47.10-6.40Q47.10-4.74 47.65-3.65L47.65-3.65L47.65-3.65Q48.19-2.56 49.66-2.56L49.66-2.56L49.66-2.56Q51.14-2.56 52.06-3.26L52.06-3.26L52.06-3.26Q52.99-3.97 53.70-5.63L53.70-5.63L53.70-5.63Q54.98-8.58 56-14.05L56-14.05L56-14.05Q57.02-19.52 57.12-21.89L57.12-21.89L57.12-21.89Q57.22-24.26 57.22-26.02L57.22-26.02L57.22-26.02Q57.22-27.78 56.70-28.93L56.70-28.93L56.70-28.93Q56.19-30.08 54.75-30.08L54.75-30.08L54.75-30.08Q53.31-30.08 52.35-29.18L52.35-29.18L52.35-29.18Q51.39-28.29 50.62-26.56ZM99.90 1.28L99.90 1.28L99.90 1.28Q92.16 1.28 92.16-4.74L92.16-4.74L92.16-4.74Q92.22-6.40 92.74-9.22L92.74-9.22L93.89-15.10L93.89-15.10Q95.62-23.42 95.62-25.28L95.62-25.28L95.62-25.28Q95.62-28.99 93.44-28.99L93.44-28.99L93.44-28.99Q89.79-28.99 87.87-19.46L87.87-19.46L84.10 0L71.23 1.28L77.89-32.70L88.38-33.92L87.36-27.65L87.36-27.65Q90.37-33.92 99.58-33.92L99.58-33.92L99.58-33.92Q104.06-33.92 105.95-32.03L105.95-32.03L105.95-32.03Q107.84-30.14 107.84-25.92L107.84-25.92L107.84-25.92Q107.84-21.95 105.79-12.67L105.79-12.67L105.79-12.67Q104.83-8.51 104.83-6.94L104.83-6.94L104.83-6.94Q104.83-5.38 105.70-4.48L105.70-4.48L105.70-4.48Q106.56-3.58 107.84-3.46L107.84-3.46L107.84-3.46Q107.20-1.28 104.99 0L104.99 0L104.99 0Q102.78 1.28 99.90 1.28ZM133.12-33.92L133.12-33.92L133.12-33.92Q135.42-33.92 137.22-33.41L137.22-33.41L137.22-33.41Q137.28-33.66 137.41-34.37L137.41-34.37L137.73-36.35L137.73-36.35Q137.98-37.63 138.37-39.74L138.37-39.74L139.39-44.80L152.13-46.08L145.02-8.96L145.02-8.96Q144.96-8.58 144.96-7.94L144.96-7.94L144.96-6.91L144.96-6.91Q144.96-5.50 145.66-4.45L145.66-4.45L145.66-4.45Q146.37-3.39 147.52-3.39L147.52-3.39L147.52-3.39Q146.24-0.38 142.34 0.90L142.34 0.90L142.34 0.90Q140.99 1.28 139.10 1.28L139.10 1.28L139.10 1.28Q137.22 1.28 135.49 0.29L135.49 0.29L135.49 0.29Q133.76-0.70 133.25-2.37L133.25-2.37L133.25-2.37Q132.22-0.70 130.18 0.29L130.18 0.29L130.18 0.29Q128.13 1.28 125.15 1.28L125.15 1.28L125.15 1.28Q122.18 1.28 119.71 0.51L119.71 0.51L119.71 0.51Q117.25-0.26 115.71-1.92L115.71-1.92L115.71-1.92Q112.90-5.18 112.90-12.61L112.90-12.61L112.90-12.61Q112.90-22.21 118.53-28.03L118.53-28.03L118.53-28.03Q124.16-33.92 133.12-33.92ZM132.67-30.08L132.67-30.08L132.67-30.08Q130.30-30.08 129.02-27.52L129.02-27.52L129.02-27.52Q127.74-24.96 126.43-18.62L126.43-18.62L126.43-18.62Q125.12-12.29 125.12-6.59L125.12-6.59L125.12-6.59Q125.12-2.69 127.42-2.69L127.42-2.69L127.42-2.69Q129.47-2.69 130.91-4.74L130.91-4.74L130.91-4.74Q132.35-6.78 132.93-10.18L132.93-10.18L136.38-28.93L136.38-28.93Q135.04-30.08 132.67-30.08ZM166.91 1.28L166.91 1.28L166.91 1.28Q152.83 1.28 152.83-11.97L152.83-11.97L152.83-11.97Q152.83-21.38 158.02-27.46L158.02-27.46L158.02-27.46Q163.52-33.92 173.06-33.92L173.06-33.92L173.06-33.92Q179.97-33.92 183.49-30.72L183.49-30.72L183.49-30.72Q187.01-27.52 187.01-20.80L187.01-20.80L187.01-20.80Q187.01-10.56 181.50-4.61L181.50-4.61L181.50-4.61Q176.13 1.28 166.91 1.28ZM168.58-26.56L168.58-26.56L168.58-26.56Q167.81-24.83 167.20-22.24L167.20-22.24L167.20-22.24Q166.59-19.65 165.82-15.55L165.82-15.55L165.82-15.55Q165.06-11.46 165.06-6.40L165.06-6.40L165.06-6.40Q165.06-4.74 165.60-3.65L165.60-3.65L165.60-3.65Q166.14-2.56 167.62-2.56L167.62-2.56L167.62-2.56Q169.09-2.56 170.02-3.26L170.02-3.26L170.02-3.26Q170.94-3.97 171.65-5.63L171.65-5.63L171.65-5.63Q172.93-8.58 173.95-14.05L173.95-14.05L173.95-14.05Q174.98-19.52 175.07-21.89L175.07-21.89L175.07-21.89Q175.17-24.26 175.17-26.02L175.17-26.02L175.17-26.02Q175.17-27.78 174.66-28.93L174.66-28.93L174.66-28.93Q174.14-30.08 172.70-30.08L172.70-30.08L172.70-30.08Q171.26-30.08 170.30-29.18L170.30-29.18L170.30-29.18Q169.34-28.29 168.58-26.56ZM217.86 1.28L217.86 1.28L217.86 1.28Q210.11 1.28 210.11-4.74L210.11-4.74L210.11-4.74Q210.18-6.40 210.69-9.22L210.69-9.22L211.84-15.10L211.84-15.10Q213.57-23.42 213.57-25.28L213.57-25.28L213.57-25.28Q213.57-28.99 211.39-28.99L211.39-28.99L211.39-28.99Q207.74-28.99 205.82-19.46L205.82-19.46L202.05 0L189.18 1.28L195.84-32.70L206.34-33.92L205.31-27.65L205.31-27.65Q208.32-33.92 217.54-33.92L217.54-33.92L217.54-33.92Q222.02-33.92 223.90-32.03L223.90-32.03L223.90-32.03Q225.79-30.14 225.79-25.92L225.79-25.92L225.79-25.92Q225.79-21.95 223.74-12.67L223.74-12.67L223.74-12.67Q222.78-8.51 222.78-6.94L222.78-6.94L222.78-6.94Q222.78-5.38 223.65-4.48L223.65-4.48L223.65-4.48Q224.51-3.58 225.79-3.46L225.79-3.46L225.79-3.46Q225.15-1.28 222.94 0L222.94 0L222.94 0Q220.74 1.28 217.86 1.28Z"
        fill="#eb6c6c"></path>
    </g>
  </g>
  <style>
    text {
      font-size: 64px;
      font-family: Arial Black;
      dominant-baseline: central;
      text-anchor: middle;
    }
  </style>
</svg>